<?xml version="1.0" encoding="UTF-8" standalone="no"?>
<svg width="60px" height="60px" viewBox="0 0 60 60" version="1.1" xmlns="http://www.w3.org/2000/svg" xmlns:xlink="http://www.w3.org/1999/xlink">
    <!-- Generator: Sketch 40.1 (33804) - http://www.bohemiancoding.com/sketch -->
    <title>1 -Facebook- (social, media, communication, retro)</title>
    <desc>Created with Sketch.</desc>
    <defs></defs>
    <g id="Page-1" stroke="none" stroke-width="1" fill="none" fill-rule="evenodd">
        <g id="Icons" transform="translate(-120.000000, -378.000000)">
            <g id="1--Facebook--(social,-media,-communication,-retro)" transform="translate(121.000000, 379.000000)">
                <path d="M54,58.0001 L4,58.0001 C1.791,58.0001 0,56.2091 0,54.0001 L0,4.0001 C0,1.7911 1.791,0.0001 4,0.0001 L54,0.0001 C56.209,0.0001 58,1.7911 58,4.0001 L58,54.0001 C58,56.2091 56.209,58.0001 54,58.0001" id="Fill-57" fill="#003EA9"></path>
                <path d="M49,10.0001 L49,20.0001 L40,20.0001 C38.895,20.0001 38,20.8951 38,22.0001 L38,28.0001 L48,28.0001 L48,38.0001 L38,38.0001 L38,58.0001 L28,58.0001 L28,38.0001 L20,38.0001 L20,28.0001 L28,28.0001 L28,22.0001 C28,15.7051 32.837,10.5081 39,10.0001 L49,10.0001 Z" id="Fill-58" fill="#FFFFFF"></path>
                <path d="M49,10.0001 L49,20.0001 L40,20.0001 C38.895,20.0001 38,20.8951 38,22.0001 L38,28.0001 L48,28.0001 L48,38.0001 L38,38.0001 L38,58.0001 L28,58.0001 L28,38.0001 L20,38.0001 L20,28.0001 L28,28.0001 L28,22.0001 C28,15.7051 32.837,10.5081 39,10.0001 L49,10.0001 L49,10.0001 Z" id="Stroke-152" stroke="#000000" stroke-width="2"></path>
                <path d="M54,58.0001 L4,58.0001 C1.791,58.0001 0,56.2091 0,54.0001 L0,4.0001 C0,1.7911 1.791,0.0001 4,0.0001 L54,0.0001 C56.209,0.0001 58,1.7911 58,4.0001 L58,54.0001 C58,56.2091 56.209,58.0001 54,58.0001 L54,58.0001 Z" id="Stroke-153" stroke="#000000" stroke-width="2"></path>
            </g>
        </g>
    </g>
</svg>